<svg width="1024" height="1024" viewBox="0 0 1024 1024" fill="none" xmlns="http://www.w3.org/2000/svg">
<rect width="1024" height="1024" fill="white"/>
<path fill-rule="evenodd" clip-rule="evenodd" d="M130.956 550.948C130.305 544.503 129.814 538.01 129.487 531.475H894.513C894.186 538.01 893.695 544.503 893.044 550.948H130.956ZM133.428 570.423C134.43 576.972 135.598 583.466 136.928 589.901H887.072C888.402 583.466 889.57 576.972 890.572 570.423H133.428ZM147.152 628.849C145.098 622.43 143.208 615.937 141.488 609.376H882.511C880.792 615.937 878.902 622.43 876.848 628.849H147.152ZM153.972 648.324C155.636 652.69 157.377 657.019 159.194 661.307H864.806C866.623 657.019 868.364 652.69 870.028 648.324H153.972ZM178.382 700.255C175.964 695.978 173.625 691.65 171.368 687.273H852.631C850.375 691.65 848.036 695.978 845.617 700.255H178.382ZM194.466 726.221C197.435 730.614 200.494 734.942 203.638 739.203H820.362C823.506 734.942 826.565 730.614 829.534 726.221H194.466ZM236.586 778.151C232.493 773.916 228.497 769.588 224.601 765.169H799.399C795.503 769.588 791.507 773.916 787.414 778.151H236.586ZM264.285 804.117C269.55 808.586 274.937 812.915 280.441 817.099H743.559C749.063 812.915 754.45 808.586 759.715 804.117H264.285ZM343.527 856.052C335.28 852.006 327.201 847.673 319.301 843.065H704.699C696.799 847.673 688.72 852.006 680.473 856.052H343.527ZM412.761 882.018C444.412 890.486 477.679 895 512 895C546.321 895 579.588 890.486 611.239 882.018H412.761ZM894.134 486.035C894.708 494.616 895 503.274 895 512H129C129 503.274 129.292 494.616 129.866 486.035H894.134ZM130.956 473.052C131.839 464.305 133.017 455.645 134.479 447.082H889.521C890.983 455.645 892.161 464.305 893.044 473.052H130.956ZM145.138 401.643C141.944 412.275 139.2 423.1 136.928 434.099H887.072C884.8 423.1 882.056 412.275 878.862 401.643H145.138ZM156.513 369.186C153.936 375.593 151.528 382.087 149.293 388.66H874.707C872.472 382.087 870.064 375.593 867.487 369.186H862.54H156.513ZM162.015 356.203C165.955 347.366 170.219 338.706 174.794 330.238H849.206C853.781 338.706 858.045 347.366 861.985 356.203H162.015ZM200.405 289.244C193.924 298.294 187.826 307.639 182.137 317.255H841.863C836.602 308.362 830.991 299.701 825.05 291.29H200.405V289.244ZM208.535 278.307C217.28 266.968 226.647 256.132 236.583 245.852H787.417C797.353 256.132 806.72 266.968 815.465 278.307H208.535ZM512 129C613.469 129 705.722 168.459 774.251 232.869H249.749C318.278 168.459 410.531 129 512 129Z" fill="url(#paint0_linear_771_142)"/>
<defs>
<linearGradient id="paint0_linear_771_142" x1="512" y1="129" x2="512" y2="895" gradientUnits="userSpaceOnUse">
<stop/>
<stop offset="1" stop-color="#444444"/>
</linearGradient>
</defs>
</svg>
