<svg width="164" height="164" viewBox="0 0 164 164" fill="none" xmlns="http://www.w3.org/2000/svg">
<path fill-rule="evenodd" clip-rule="evenodd" d="M0.418769 90.3387C0.279401 88.9588 0.174247 87.5688 0.104168 86.1695H163.896C163.826 87.5688 163.721 88.9588 163.581 90.3387H0.418769ZM0.947947 94.5082C1.16255 95.9104 1.41267 97.3008 1.69736 98.6786H162.303C162.587 97.3008 162.837 95.9104 163.052 94.5082H0.947947ZM3.8863 107.017C3.4465 105.643 3.04198 104.253 2.67378 102.848H161.326C160.958 104.253 160.553 105.643 160.114 107.017H3.8863ZM5.34648 111.187C5.70265 112.122 6.07542 113.048 6.46445 113.966H157.536C157.925 113.048 158.297 112.122 158.654 111.187H5.34648ZM10.5727 122.305C10.0549 121.39 9.55423 120.463 9.07106 119.526H154.929C154.446 120.463 153.945 121.39 153.427 122.305H10.5727ZM14.0162 127.865C14.652 128.805 15.3067 129.732 15.98 130.644H148.02C148.693 129.732 149.348 128.805 149.984 127.865H14.0162ZM23.034 138.983C22.1577 138.076 21.3022 137.149 20.4681 136.203H143.532C142.698 137.149 141.842 138.076 140.966 138.983H23.034ZM28.9644 144.542C30.0916 145.499 31.245 146.426 32.4233 147.321H131.577C132.755 146.426 133.908 145.499 135.036 144.542H28.9644ZM45.93 155.661C44.1645 154.795 42.4346 153.867 40.7432 152.881H123.257C121.565 153.867 119.836 154.795 118.07 155.661H45.93ZM60.753 161.221C67.5295 163.033 74.6519 164 82 164C89.3481 164 96.4705 163.033 103.247 161.221H60.753ZM163.815 76.4409C163.938 78.2781 164 80.1317 164 82H0C0 80.1317 0.0624801 78.2781 0.185465 76.4409H163.815ZM0.418769 73.6613C0.607909 71.7885 0.860064 69.9344 1.17308 68.101H162.827C163.14 69.9344 163.392 71.7885 163.581 73.6613H0.418769ZM3.45513 58.3727C2.7714 60.6489 2.1839 62.9667 1.69736 65.3214H162.303C161.816 62.9667 161.229 60.6489 160.545 58.3727H3.45513ZM5.89051 51.4236C5.33887 52.7954 4.82323 54.1857 4.34479 55.5931H159.655C159.177 54.1857 158.661 52.7954 158.109 51.4236H157.05H5.89051ZM7.06855 48.6439C7.91202 46.752 8.82504 44.8979 9.80436 43.0849H154.196C155.175 44.8979 156.088 46.752 156.931 48.6439H7.06855ZM15.2879 34.308C13.9001 36.2458 12.5946 38.2466 11.3766 40.3052H152.623C151.497 38.4013 150.296 36.547 149.024 34.7461H15.2879V34.308ZM17.0284 31.9665C18.9007 29.5388 20.9061 27.2189 23.0335 25.0178H140.966C143.094 27.2189 145.099 29.5388 146.972 31.9665H17.0284ZM82 0C103.724 0 123.476 8.44806 138.148 22.2382H25.8523C40.5244 8.44806 60.2756 0 82 0Z" fill="url(#paint0_linear_984_794)"/>
<defs>
<linearGradient id="paint0_linear_984_794" x1="82" y1="0" x2="82" y2="164" gradientUnits="userSpaceOnUse">
<stop/>
<stop offset="1" stop-color="#444444"/>
</linearGradient>
</defs>
</svg>
